# xmcd CD database file
#
# Track frame offsets:
#	150
#	14460
#	26296
#	42969
#	56419
#	75616
#	89539
#	105107
#	119782
#	142029
#	159925
#	180015
#	201373
#	213311
#	235674
#	249749
#	263689
#
# Disc length: 3713 seconds
#
# Revision: 0
# Processed by: cddbd v1.5.1PL0 Copyright (c) Steve Scherf et al.
# Submitted via: CDex 1.51
#
DISCID=d70e7f11
DTITLE=Cuarteto - Maraka son
DYEAR=2005
DGENRE=Salsa
TTITLE0=La lengua
TTITLE1=Quizas, quizas
TTITLE2=La negra Tomasa
TTITLE3=Besame mucho
TTITLE4=El cuarto de Tula
TTITLE5=Dos gardenias
TTITLE6=La guantanamera
TTITLE7=Solamente una vez
TTITLE8=Hasta siempre Comandante
TTITLE9=Dulce embeleso
TTITLE10=Alardosa
TTITLE11=Yolanda
TTITLE12=Rico vacilon
TTITLE13=Derroche
TTITLE14=Chan chan
TTITLE15=Maridos majaderos
TTITLE16=La piragua
EXTD=YEAR: 2005
EXTT0=
EXTT1=
EXTT2=
EXTT3=
EXTT4=
EXTT5=
EXTT6=
EXTT7=
EXTT8=
EXTT9=
EXTT10=
EXTT11=
EXTT12=
EXTT13=
EXTT14=
EXTT15=
EXTT16=
PLAYORDER=
